<mxfile host="app.diagrams.net" modified="2024-06-11T09:22:38.478Z" agent="Mozilla/5.0 (Macintosh; Intel Mac OS X 10_15_7) AppleWebKit/537.36 (KHTML, like Gecko) Chrome/116.0.0.0 Safari/537.36" version="24.4.6" etag="ow5tAHgxNdJ4qAZHlj1h" type="github">
  <diagram name="Page-1" id="JfXEuqQ5-F09ZYvzDKfJ">
    <mxGraphModel>
      <root>
        <mxCell id="0" />
        <mxCell id="1" parent="0" />
      </root>
    </mxGraphModel>
  </diagram>
</mxfile>
